# xmcd
#
# Track frame offsets: 
#        182
#        11202
#        23252
#        34585
#        47205
#        59725
#        71240
#        83365
#        92910
#        104657
#        116630
#        130397
#        142782
#        154425
#        167510
#        179972
#        192185
#        203787
#        214455
#        227140
#        237740
#        250765
#        260467
#        273500
#        287192
#        299525
#        312642
#
# Disc length: 4316 seconds
#
# Revision: 3
# Processed by: cddbd v1.5.2PL0 Copyright (c) Steve Scherf et al.
# Submitted via: ExactAudioCopyFreeDBPlugin 1.0
#
DISCID=ab10da1b
DTITLE=Various Artist - The Complete Stax-Volt Singles, 1959-1975
DYEAR=1991
DGENRE=Soul
TTITLE0=Rufus Thomas - Down ta My House
TTITLE1=Charmels - As Long as I've Got You
TTITLE2=Jeanne and The Darlings - Soul Girl
TTITLE3=Albert King - Cold Feet
TTITLE4=Sam and Dave - I Thank You
TTITLE5=Sam and Dave - Wrap it Up
TTITLE6=Otis Redding - (Sittin' On) The Dock of the Bay
TTITLE7=The Memphis Nomads - Don't Pass Your Judgement
TTITLE8=Otis Redding and Carla Thomas - Lovey Dovey
TTITLE9=Ollie and The Nightingales - I Got a Sure Thing
TTITLE10=Eddie Floyd - Big Bird
TTITLE11=The Bar-Kays - A Hard Day's Night
TTITLE12=Johnnie Taylor - Next Time
TTITLE13=William Bell - A Tribute to a King
TTITLE14=William Bell - Every Man Oughta Have a Woman
TTITLE15=Mable John - Able Mable
TTITLE16=Rufus Thomas - The Memphis Train
TTITLE17=Rufus Thomas - I Think I Made a Boo Boo
TTITLE18=Jeanne and The Darlings - What Will Later on Be Like
TTITLE19=Jeanne and The Darlings - Hang Me Now
TTITLE20=Derek Martin - Soul Power
TTITLE21=Linda Lyndell - Bring Your Love Back to Me
TTITLE22=Carla Thomas - A Dime a Dozen
TTITLE23=The Mad Lads - Whatever Hurts You
TTITLE24=Otis Redding - The Happy Song (Dum Dum)
TTITLE25=Albert King - (I Love) Lucy
TTITLE26=Johnnie Taylor - I Ain't Particular
EXTD=
EXTT0=
EXTT1=
EXTT2=
EXTT3=
EXTT4=
EXTT5=
EXTT6=
EXTT7=
EXTT8=
EXTT9=
EXTT10=
EXTT11=
EXTT12=
EXTT13=
EXTT14=
EXTT15=
EXTT16=
EXTT17=
EXTT18=
EXTT19=
EXTT20=
EXTT21=
EXTT22=
EXTT23=
EXTT24=
EXTT25=
EXTT26=
PLAYORDER=
